<?xml version="1.0" encoding="UTF-8"?>
<svg width="20px" height="20px" viewBox="0 0 20 20" version="1.1" xmlns="http://www.w3.org/2000/svg" xmlns:xlink="http://www.w3.org/1999/xlink">
    <title>43A9436C-9824-4B5C-B10C-B7E102ED8528</title>
    <g id="Symbols" stroke="none" stroke-width="1" fill="none" fill-rule="evenodd">
        <g id="_Assets/Icons/ic_5g/Light-Mode" fill="#4A4A4A">
            <path d="M16,2 C17.1045695,2 18,2.8954305 18,4 L18,16 C18,17.1045695 17.1045695,18 16,18 L4,18 C2.8954305,18 2,17.1045695 2,16 L2,4 C2,2.8954305 2.8954305,2 4,2 L16,2 Z M16,3.5 L4,3.5 C3.75454011,3.5 3.55039163,3.67687516 3.50805567,3.91012437 L3.5,4 L3.5,16 C3.5,16.2454599 3.67687516,16.4496084 3.91012437,16.4919443 L4,16.5 L16,16.5 C16.2454599,16.5 16.4496084,16.3231248 16.4919443,16.0898756 L16.5,16 L16.5,4 C16.5,3.75454011 16.3231248,3.55039163 16.0898756,3.50805567 L16,3.5 Z M12.440959,7 C13.7896962,7 14.7745513,7.77521424 14.9446266,8.91430455 L14.9446266,8.91430455 L14.9525371,8.9538563 L13.7659648,8.9538563 L13.7580543,8.91430455 C13.5958894,8.34871457 13.1093948,8.01252472 12.440959,8.01252472 C11.5193879,8.01252472 10.9498332,8.76400791 10.9498332,9.97824654 L10.9498332,9.97824654 C10.9498332,11.2241266 11.5470746,11.9874753 12.4884219,11.9874753 C13.2715597,11.9874753 13.8094724,11.5088991 13.8332039,10.7890574 L13.8332039,10.7890574 L13.8371591,10.6822676 L12.6031239,10.6822676 L12.6031239,9.8121292 L15,9.8121292 L15,10.5359262 C15,12.0507581 14.0270107,13 12.4686457,13 C10.7718473,13 9.73161892,11.8569545 9.73161892,9.99802241 L9.73161892,9.99802241 C9.73161892,8.15886618 10.7797578,7 12.440959,7 Z M8.92755437,7.14634146 L8.92755437,8.09558339 L6.28940858,8.09558339 L6.14701991,9.72116018 L6.21821424,9.72116018 C6.44761823,9.33750824 6.89060522,9.10019776 7.43642849,9.10019776 C8.50038833,9.10019776 9.2677051,9.88332235 9.2677051,10.9709954 L9.2677051,10.9709954 C9.2677051,12.1812788 8.3817311,13 7.100233,13 C5.87806351,13 5.07119434,12.2722479 5.00395524,11.3190508 L5.00395524,11.3190508 L5,11.2636783 L6.08373605,11.2636783 L6.09164653,11.2913645 C6.17470659,11.7106131 6.56627546,12.0468029 7.10418824,12.0468029 C7.7172506,12.0468029 8.14441664,11.6156889 8.14441664,11.0026368 L8.14441664,11.0026368 C8.14441664,10.3856295 7.71329536,9.96242584 7.10814348,9.96242584 C6.81941088,9.96242584 6.57418594,10.0454845 6.38433437,10.2076467 C6.27754286,10.2946605 6.18261708,10.4014502 6.11933322,10.5240606 L6.11933322,10.5240606 L5.09492579,10.5240606 L5.35992694,7.14634146 L8.92755437,7.14634146 Z" id="5G"></path>
        </g>
    </g>
</svg>