<?xml version="1.0" encoding="UTF-8"?>
<svg width="20px" height="20px" viewBox="0 0 20 20" version="1.1" xmlns="http://www.w3.org/2000/svg" xmlns:xlink="http://www.w3.org/1999/xlink">
    <title>6BB8C8DF-1343-422B-95B6-316343873406</title>
    <g id="Symbols" stroke="none" stroke-width="1" fill="none" fill-rule="evenodd">
        <g id="_Assets/Icons/ic_3g/Light-Mode" fill="#4A4A4A" fill-rule="nonzero">
            <path d="M16,2 C17.1045695,2 18,2.8954305 18,4 L18,16 C18,17.1045695 17.1045695,18 16,18 L4,18 C2.8954305,18 2,17.1045695 2,16 L2,4 C2,2.8954305 2.8954305,2 4,2 L16,2 Z M16,3.5 L4,3.5 C3.75454011,3.5 3.55039163,3.67687516 3.50805567,3.91012437 L3.5,4 L3.5,16 C3.5,16.2454599 3.67687516,16.4496084 3.91012437,16.4919443 L4,16.5 L16,16.5 C16.2454599,16.5 16.4496084,16.3231248 16.4919443,16.0898756 L16.5,16 L16.5,4 C16.5,3.75454011 16.3231248,3.55039163 16.0898756,3.50805567 L16,3.5 Z M12.4905857,7 C13.8131673,7 14.7789233,7.77521424 14.9457005,8.91430455 L14.9457005,8.91430455 L14.9534575,8.9538563 L13.7898961,8.9538563 L13.782139,8.91430455 C13.6231189,8.34871457 13.1460587,8.01252472 12.4905857,8.01252472 C11.5868863,8.01252472 11.0283768,8.76400791 11.0283768,9.97824654 L11.0283768,9.97824654 C11.0283768,11.2241266 11.6140361,11.9874753 12.5371282,11.9874753 C13.3050788,11.9874753 13.83256,11.5088991 13.8558312,10.7890574 L13.8558312,10.7890574 L13.8597097,10.6822676 L12.6496058,10.6822676 L12.6496058,9.8121292 L15,9.8121292 L15,10.5359262 C15,12.0507581 14.0458796,13 12.5177355,13 C10.8538426,13 9.833787,11.8569545 9.833787,9.99802241 L9.833787,9.99802241 C9.833787,8.15886618 10.8615997,7 12.4905857,7 Z M7.17198144,7.01977587 C8.37432831,7.01977587 9.15003596,7.63678312 9.15003596,8.5464733 L9.15003596,8.5464733 C9.15003596,9.2663151 8.63806891,9.72907053 7.98259594,9.86750165 L7.98259594,9.86750165 L7.98259594,9.8912327 C8.81648167,9.97033619 9.35947703,10.4607779 9.35947703,11.2359921 L9.35947703,11.2359921 C9.35947703,12.2801582 8.48680592,12.9802241 7.17973852,12.9802241 C5.91533504,12.9802241 5.0814493,12.2880686 5.00387854,11.2676335 L5.00387854,11.2676335 L5,11.2162162 L6.12089756,11.2162162 L6.1247761,11.2597231 C6.1751971,11.7027027 6.57468654,12.0191167 7.17973852,12.0191167 C7.77703341,12.0191167 8.16876578,11.6789717 8.16876578,11.1964403 L8.16876578,11.1964403 C8.16876578,10.6427159 7.76927634,10.3421226 7.09053214,10.3421226 L7.09053214,10.3421226 L6.45057332,10.3421226 L6.45057332,9.49176005 L7.07501798,9.49176005 C7.6645558,9.49176005 8.04465255,9.17534608 8.04465255,8.71259064 L8.04465255,8.71259064 C8.04465255,8.23005933 7.72273388,7.9373764 7.17198144,7.9373764 C6.621229,7.9373764 6.25276787,8.24192485 6.20622541,8.71654581 L6.20622541,8.71654581 L6.20234687,8.75214239 L5.12411323,8.75214239 L5.12799176,8.70468029 C5.20944107,7.68424522 5.99678434,7.01977587 7.17198144,7.01977587 Z" id="3G"></path>
        </g>
    </g>
</svg>