<?xml version="1.0" encoding="UTF-8"?>
<svg width="20px" height="20px" viewBox="0 0 20 20" version="1.1" xmlns="http://www.w3.org/2000/svg" xmlns:xlink="http://www.w3.org/1999/xlink">
    <title>7CF14010-356B-4DA5-A86C-3C5C40CE069C</title>
    <g id="Symbols" stroke="none" stroke-width="1" fill="none" fill-rule="evenodd">
        <g id="_Assets/Icons/ic_4g/Light-Mode" fill="#4A4A4A">
            <path d="M16,2 C17.1045695,2 18,2.8954305 18,4 L18,16 C18,17.1045695 17.1045695,18 16,18 L4,18 C2.8954305,18 2,17.1045695 2,16 L2,4 C2,2.8954305 2.8954305,2 4,2 L16,2 Z M16,3.5 L4,3.5 C3.75454011,3.5 3.55039163,3.67687516 3.50805567,3.91012437 L3.5,4 L3.5,16 C3.5,16.2454599 3.67687516,16.4496084 3.91012437,16.4919443 L4,16.5 L16,16.5 C16.2454599,16.5 16.4496084,16.3231248 16.4919443,16.0898756 L16.5,16 L16.5,4 C16.5,3.75454011 16.3231248,3.55039163 16.0898756,3.50805567 L16,3.5 Z M12.540196,7 C13.8366306,7 14.7832939,7.77521424 14.9467739,8.91430455 L14.9467739,8.91430455 L14.9543777,8.9538563 L13.8138194,8.9538563 L13.8062157,8.91430455 C13.6503394,8.34871457 13.1827105,8.01252472 12.540196,8.01252472 C11.6543625,8.01252472 11.1068945,8.76400791 11.1068945,9.97824654 L11.1068945,9.97824654 C11.1068945,11.2241266 11.6809755,11.9874753 12.5858184,11.9874753 C13.3385868,11.9874753 13.8556399,11.5088991 13.8784511,10.7890574 L13.8784511,10.7890574 L13.8822529,10.6822676 L12.6960723,10.6822676 L12.6960723,9.8121292 L15,9.8121292 L15,10.5359262 C15,12.0507581 14.0647422,13 12.5668091,13 C10.9358108,13 9.93592136,11.8569545 9.93592136,9.99802241 L9.93592136,9.99802241 C9.93592136,8.15886618 10.9434145,7 12.540196,7 Z M8.78285153,7.14634146 L8.78285153,10.848385 L9.49760137,10.848385 L9.49760137,11.8055372 L8.78285153,11.8055372 L8.78285153,12.8536585 L7.68791561,12.8536585 L7.68791561,11.8055372 L5,11.8055372 L5,10.8681608 C5.69574053,9.58272907 6.44090526,8.31707317 7.17086254,7.14634146 L7.17086254,7.14634146 L8.78285153,7.14634146 Z M7.71072678,8.05207647 L7.649897,8.05207647 C7.11763649,8.90243902 6.52834806,9.89518787 6.03410615,10.8167436 L6.03410615,10.8167436 L6.03410615,10.8800264 L7.71072678,10.8800264 L7.71072678,8.05207647 Z" id="4G"></path>
        </g>
    </g>
</svg>